# xmcd CD database file
#
# Track frame offsets:
#	150
#	4035
#	21607
#	38279
#	57112
#	73445
#	76364
#	91649
#	100918
#	132026
#	139694
#	157482
#	185583
#
# Disc length: 2813 seconds
#
# Revision: 0
# Processed by: cddbd v1.5.2PL0 Copyright (c) Steve Scherf et al.
# Submitted via: CDex 1.70beta2
#
DISCID=aa0afb0d
DTITLE=Various Artist - Underground Jazz File - Drums
DYEAR=2008
DGENRE=Jazz
TTITLE0=Intro
TTITLE1=Roll Call - The Stance Brothers
TTITLE2=Light (Our Time) - demo version - Spencer Doran
TTITLE3=Wildflower - Nostalgia 77
TTITLE4=The Lead - J.Rawls presents The Liquid Crystal Project
TTITLE5=Solo
TTITLE6=,Enya - Steve Grossman
TTITLE7=Let The Drums Speak - Funkshone
TTITLE8=Relax - Myron
TTITLE9=Session
TTITLE10=Rusty - Lack Of Afro
TTITLE11=Pirates - indigo jam unit
TTITLE12=Broken Promises - Maker
EXTD=YEAR: 2008
EXTT0=
EXTT1=
EXTT2=
EXTT3=
EXTT4=
EXTT5=
EXTT6=
EXTT7=
EXTT8=
EXTT9=
EXTT10=
EXTT11=
EXTT12=
PLAYORDER=
